# xmcd
#
# Track frame offsets: 
#        182
#        18492
#        43547
#        75657
#
# Disc length: 1331 seconds
#
# Revision: 0
# Processed by: cddbd v1.5.2PL0 Copyright (c) Steve Scherf et al.
# Submitted via: ExactAudioCopy v0.99pb5
#
DISCID=24053104
DTITLE=D*Note - The More I See (Single)
DYEAR=1993
DGENRE=Acid-Hop/Acid-Jazz
TTITLE0=The More I See (Trailer)
TTITLE1=The More I See (Main Feature)
TTITLE2=D*Votion
TTITLE3=The More I See (B-Movie)
EXTD=
EXTT0=
EXTT1=
EXTT2=
EXTT3=
PLAYORDER=
